<svg xmlns="http://www.w3.org/2000/svg" xml:space="preserve" width="800" height="800" viewBox="0 0 492.022 492.022"><path d="M317.88 113.728H58.729C26.348 113.728 0 140.078 0 172.459v259.15c0 32.381 26.348 58.729 58.729 58.729H317.88c32.381 0 58.728-26.348 58.728-58.729v-259.15c0-32.381-26.347-58.731-58.728-58.731zm-9.922 307.959H68.651V182.378h239.307v239.309z"/><path d="M406.609 1.685H260.308c-18.956 0-34.325 15.369-34.325 34.324 0 18.956 15.369 34.326 34.325 34.326H406.61c9.236 0 16.762 7.525 16.762 16.76V233.4c0 18.955 15.368 34.324 34.325 34.324s34.326-15.369 34.326-34.324V87.095c-.001-47.095-38.317-85.41-85.414-85.41z"/></svg>